<svg xmlns="http://www.w3.org/2000/svg" width="428.823" height="117.964" viewBox="0 0 428.823 117.964">
  <defs>
    <style>
      .cls-1 {
        fill: #8d203c;
      }

      .cls-2 {
        fill: #29235c;
      }

      .cls-3 {
        fill: #b2b2af;
      }
    </style>
  </defs>
  <g id="Grupo_187" data-name="Grupo 187" transform="translate(-961 -475)">
    <path id="Trazado_4" data-name="Trazado 4" class="cls-1" d="M1534.512,262.117h-55.9l-7.734,11.843h59.357l19.145,26.8h-9.545l-14.533-20.135-59.453.018-8.509,11.2,64.787-.035,13.6,18.9h33.91Z" transform="translate(-490.852 212.883)"/>
    <path id="Trazado_5" data-name="Trazado 5" class="cls-2" d="M1478.341,409.707h55.835l7.837-11.845-59.418.018-19.122-26.794h9.541l14.515,20.118h59.453l8.527-11.2h-64.762l-13.675-18.895h-33.878Z" transform="translate(-482.194 152.312)"/>
    <path id="Trazado_6" data-name="Trazado 6" class="cls-3" d="M1585.234,370.663h-15.891l-7.722-9.759h15.14Z" transform="translate(-554.659 152.435)"/>
    <path id="Trazado_7" data-name="Trazado 7" d="M1825.326,517.973v2.147h-2.409v-1.695a3.787,3.787,0,0,1,.4-1.993,3.21,3.21,0,0,1,1.66-1.243l.549.72a1.952,1.952,0,0,0-1.011.7,2.575,2.575,0,0,0-.362,1.361Zm3.624,0v2.147h-2.409v-1.695a3.788,3.788,0,0,1,.4-1.993,3.209,3.209,0,0,1,1.66-1.243l.549.72a1.95,1.95,0,0,0-1.011.7,2.571,2.571,0,0,0-.362,1.361Z" transform="translate(-714.546 58.029)"/>
    <path id="Trazado_8" data-name="Trazado 8" d="M1845.762,530.912V515.851h6.343a17.07,17.07,0,0,1,2.558.144,5.429,5.429,0,0,1,2.076.7,3.826,3.826,0,0,1,1.347,1.454,4.215,4.215,0,0,1,.511,2.055,4.367,4.367,0,0,1-1.365,3.252q-1.365,1.331-4.932,1.33h-4.313v6.123Zm2.225-7.9h4.347a5,5,0,0,0,3.063-.72,2.435,2.435,0,0,0,.906-2.024,2.494,2.494,0,0,0-1.939-2.507,10.567,10.567,0,0,0-2.076-.133h-4.3Z" transform="translate(-728.524 57.624)"/>
    <path id="Trazado_9" data-name="Trazado 9" d="M1883.74,531.612a5.312,5.312,0,0,1,1.892-4.489,6.14,6.14,0,0,1,3.852-1.212,5.86,5.86,0,0,1,4.129,1.474,5.258,5.258,0,0,1,1.6,4.073,6.547,6.547,0,0,1-.709,3.313,4.769,4.769,0,0,1-2.065,1.876,6.611,6.611,0,0,1-2.958.667,5.871,5.871,0,0,1-4.158-1.469A5.481,5.481,0,0,1,1883.74,531.612Zm2.134,0a4.3,4.3,0,0,0,1.027,3.139,3.7,3.7,0,0,0,5.156,0,4.4,4.4,0,0,0,1.027-3.195,4.184,4.184,0,0,0-1.032-3.067,3.707,3.707,0,0,0-5.15-.005A4.285,4.285,0,0,0,1885.874,531.612Z" transform="translate(-751.763 51.468)"/>
    <path id="Trazado_10" data-name="Trazado 10" d="M1919.563,537.067v-10.91h1.876v1.654a4.646,4.646,0,0,1,1.326-1.531,2.525,2.525,0,0,1,1.337-.37,4.437,4.437,0,0,1,2.142.6l-.718,1.716a3.257,3.257,0,0,0-1.528-.4,2.154,2.154,0,0,0-1.227.365,1.987,1.987,0,0,0-.776,1.012,6.45,6.45,0,0,0-.347,2.157v5.712Z" transform="translate(-773.683 51.468)"/>
    <path id="Trazado_11" data-name="Trazado 11" d="M1956.618,530.912V515.851h2.057v15.061Z" transform="translate(-796.357 57.624)"/>
    <path id="Trazado_12" data-name="Trazado 12" d="M1977.22,535.721a7.879,7.879,0,0,1-2.211,1.233,7.065,7.065,0,0,1-2.28.36,4.783,4.783,0,0,1-3.09-.878,2.767,2.767,0,0,1-1.079-2.245,2.737,2.737,0,0,1,.408-1.464,3.159,3.159,0,0,1,1.068-1.063,5.324,5.324,0,0,1,1.487-.606,16.348,16.348,0,0,1,1.838-.277,20.849,20.849,0,0,0,3.687-.637c.008-.253.012-.414.012-.482a1.918,1.918,0,0,0-.586-1.593,3.745,3.745,0,0,0-2.354-.626,3.99,3.99,0,0,0-2.154.457,2.748,2.748,0,0,0-1.028,1.618l-2.021-.246a4.266,4.266,0,0,1,.907-1.875,4.021,4.021,0,0,1,1.826-1.1,9.021,9.021,0,0,1,2.768-.385,8.133,8.133,0,0,1,2.538.329,3.405,3.405,0,0,1,1.436.827,2.784,2.784,0,0,1,.643,1.258,9.321,9.321,0,0,1,.1,1.706V532.5a23.5,23.5,0,0,0,.132,3.262,3.846,3.846,0,0,0,.523,1.31h-2.159A3.607,3.607,0,0,1,1977.22,535.721Zm-.172-4.129a16.666,16.666,0,0,1-3.376.7,8.578,8.578,0,0,0-1.8.37,1.766,1.766,0,0,0-.815.6,1.46,1.46,0,0,0-.287.879,1.509,1.509,0,0,0,.626,1.233,2.914,2.914,0,0,0,1.832.493,4.673,4.673,0,0,0,2.125-.468,3.048,3.048,0,0,0,1.367-1.28,4.048,4.048,0,0,0,.333-1.849Z" transform="translate(-803.665 51.468)"/>
    <path id="Trazado_13" data-name="Trazado 13" d="M2021.963,530.912V515.851h7.433a10.921,10.921,0,0,1,3.408.406,3.648,3.648,0,0,1,1.864,1.433,3.954,3.954,0,0,1,.7,2.271,3.583,3.583,0,0,1-1.155,2.7,6.159,6.159,0,0,1-3.568,1.4,5.908,5.908,0,0,1,1.338.75,10.716,10.716,0,0,1,1.841,2l2.916,4.1h-2.791l-2.219-3.133q-.972-1.356-1.6-2.076A4.823,4.823,0,0,0,2029,524.7a3.522,3.522,0,0,0-1.012-.4,7.362,7.362,0,0,0-1.235-.073h-2.573v6.689Zm2.218-8.414h4.769a7.926,7.926,0,0,0,2.379-.282,2.518,2.518,0,0,0,1.3-.9,2.272,2.272,0,0,0,.446-1.351,2.15,2.15,0,0,0-.864-1.757,4.369,4.369,0,0,0-2.728-.689h-5.307Z" transform="translate(-836.342 57.624)"/>
    <path id="Trazado_14" data-name="Trazado 14" d="M2071.98,535.721a7.865,7.865,0,0,1-2.207,1.233,7.041,7.041,0,0,1-2.276.36,4.768,4.768,0,0,1-3.084-.878,2.768,2.768,0,0,1-1.078-2.245,2.739,2.739,0,0,1,.407-1.464,3.158,3.158,0,0,1,1.066-1.063,5.319,5.319,0,0,1,1.485-.606,16.267,16.267,0,0,1,1.834-.277,20.789,20.789,0,0,0,3.681-.637c.007-.253.011-.414.011-.482a1.918,1.918,0,0,0-.585-1.593,3.732,3.732,0,0,0-2.35-.626,3.976,3.976,0,0,0-2.15.457,2.748,2.748,0,0,0-1.026,1.618l-2.018-.246a4.266,4.266,0,0,1,.906-1.875,4.014,4.014,0,0,1,1.823-1.1,8.991,8.991,0,0,1,2.763-.385,8.1,8.1,0,0,1,2.534.329,3.4,3.4,0,0,1,1.433.827,2.788,2.788,0,0,1,.642,1.258,9.331,9.331,0,0,1,.1,1.706V532.5a23.466,23.466,0,0,0,.132,3.262,3.851,3.851,0,0,0,.522,1.31h-2.156A3.609,3.609,0,0,1,2071.98,535.721Zm-.172-4.129a16.632,16.632,0,0,1-3.371.7,8.555,8.555,0,0,0-1.8.37,1.765,1.765,0,0,0-.814.6,1.462,1.462,0,0,0-.286.879,1.511,1.511,0,0,0,.624,1.233,2.907,2.907,0,0,0,1.829.493,4.659,4.659,0,0,0,2.121-.468,3.044,3.044,0,0,0,1.365-1.28,4.051,4.051,0,0,0,.333-1.849Z" transform="translate(-861.657 51.468)"/>
    <path id="Trazado_15" data-name="Trazado 15" d="M2096.071,537.456v-1.5l7.759-7.972q-1.32.061-2.33.061h-4.97v-1.5h9.963v1.222l-6.6,6.925-1.274,1.263q1.389-.093,2.606-.093h5.636v1.593Z" transform="translate(-881.688 51.079)"/>
    <path id="Trazado_16" data-name="Trazado 16" d="M2127.405,525.327a5.32,5.32,0,0,1,1.886-4.489,6.109,6.109,0,0,1,3.841-1.212,5.833,5.833,0,0,1,4.117,1.474,5.267,5.267,0,0,1,1.6,4.074,6.564,6.564,0,0,1-.707,3.313,4.761,4.761,0,0,1-2.059,1.876,6.574,6.574,0,0,1-2.949.667,5.843,5.843,0,0,1-4.145-1.469A5.49,5.49,0,0,1,2127.405,525.327Zm2.127,0a4.313,4.313,0,0,0,1.023,3.139,3.682,3.682,0,0,0,5.14,0,4.413,4.413,0,0,0,1.023-3.195,4.194,4.194,0,0,0-1.029-3.067,3.689,3.689,0,0,0-5.134-.005A4.294,4.294,0,0,0,2129.532,525.327Zm2.449-6.811,1.529-2.877h2.714l-2.53,2.877Z" transform="translate(-900.861 57.753)"/>
    <path id="Trazado_17" data-name="Trazado 17" d="M2163.034,537.067v-10.91h1.881v1.551a4.621,4.621,0,0,1,3.925-1.8,5.742,5.742,0,0,1,2.049.354,3.219,3.219,0,0,1,1.4.93,3.364,3.364,0,0,1,.65,1.366,9.374,9.374,0,0,1,.116,1.8v6.708h-2.09v-6.637a4.428,4.428,0,0,0-.244-1.69,1.851,1.851,0,0,0-.865-.894,3.036,3.036,0,0,0-1.457-.334,3.655,3.655,0,0,0-2.3.75,3.434,3.434,0,0,0-.97,2.846v5.958Z" transform="translate(-922.662 51.468)"/>
    <path id="Trazado_18" data-name="Trazado 18" d="M2211.951,541.658l-.232-1.736a5.2,5.2,0,0,0,1.2.165,2.554,2.554,0,0,0,1.116-.206,1.827,1.827,0,0,0,.685-.575,8.553,8.553,0,0,0,.639-1.377q.058-.154.186-.452l-4.683-10.931h2.255l2.568,6.318a25.837,25.837,0,0,1,.895,2.528,22.677,22.677,0,0,1,.86-2.487l2.637-6.359h2.092l-4.695,11.1a20.47,20.47,0,0,1-1.174,2.476,3.831,3.831,0,0,1-1.277,1.341,3.323,3.323,0,0,1-1.72.427A4.679,4.679,0,0,1,2211.951,541.658Z" transform="translate(-951.926 51.079)"/>
    <path id="Trazado_19" data-name="Trazado 19" d="M2268.574,533.554l2.16.236a4.654,4.654,0,0,1-1.894,2.6,6.227,6.227,0,0,1-3.531.924,6.049,6.049,0,0,1-4.292-1.474,5.366,5.366,0,0,1-1.585-4.135,5.608,5.608,0,0,1,1.6-4.274,5.8,5.8,0,0,1,4.159-1.521,5.631,5.631,0,0,1,4.042,1.49,5.508,5.508,0,0,1,1.568,4.192q0,.164-.012.493h-9.2a3.93,3.93,0,0,0,1.15,2.754,3.658,3.658,0,0,0,2.579.955,3.5,3.5,0,0,0,1.963-.534A3.569,3.569,0,0,0,2268.574,533.554Zm-6.865-2.989h6.888a3.435,3.435,0,0,0-.79-2.065,3.386,3.386,0,0,0-2.591-1.068,3.566,3.566,0,0,0-2.422.852A3.2,3.2,0,0,0,2261.71,530.565Z" transform="translate(-981.649 51.468)"/>
    <path id="Trazado_20" data-name="Trazado 20" d="M2294.972,530.912V515.851h2.106v15.061Z" transform="translate(-1003.395 57.624)"/>
    <path id="Trazado_21" data-name="Trazado 21" d="M2324.182,525.668l2.12-.164a3.841,3.841,0,0,0,.7,1.855,3.8,3.8,0,0,0,1.709,1.171,7.2,7.2,0,0,0,2.606.447,6.959,6.959,0,0,0,2.271-.34,3.159,3.159,0,0,0,1.466-.93,2,2,0,0,0,.481-1.29,1.819,1.819,0,0,0-.464-1.238,3.478,3.478,0,0,0-1.529-.888q-.683-.236-3.024-.735a16.879,16.879,0,0,1-3.279-.94,4.466,4.466,0,0,1-1.813-1.4,3.152,3.152,0,0,1-.6-1.875,3.522,3.522,0,0,1,.73-2.131,4.453,4.453,0,0,1,2.132-1.5,8.99,8.99,0,0,1,3.116-.514,9.468,9.468,0,0,1,3.331.54,4.737,4.737,0,0,1,2.219,1.587,4.218,4.218,0,0,1,.834,2.374l-2.156.143a2.969,2.969,0,0,0-1.176-2.157,5,5,0,0,0-2.96-.73,5.218,5.218,0,0,0-2.972.662,1.926,1.926,0,0,0-.933,1.6,1.632,1.632,0,0,0,.66,1.335,9.677,9.677,0,0,0,3.388,1.073,24.629,24.629,0,0,1,3.76.961,5.087,5.087,0,0,1,2.19,1.536,3.443,3.443,0,0,1,.707,2.142,3.774,3.774,0,0,1-.777,2.265,5.008,5.008,0,0,1-2.23,1.654,8.638,8.638,0,0,1-3.274.59,10.9,10.9,0,0,1-3.863-.6,5.312,5.312,0,0,1-2.445-1.793A4.687,4.687,0,0,1,2324.182,525.668Z" transform="translate(-1021.269 58.029)"/>
    <path id="Trazado_22" data-name="Trazado 22" d="M2372.946,535.721a7.869,7.869,0,0,1-2.21,1.233,7.067,7.067,0,0,1-2.28.36,4.781,4.781,0,0,1-3.089-.878,2.767,2.767,0,0,1-1.08-2.245,2.738,2.738,0,0,1,.408-1.464,3.169,3.169,0,0,1,1.068-1.063,5.33,5.33,0,0,1,1.487-.606,16.345,16.345,0,0,1,1.838-.277,20.844,20.844,0,0,0,3.686-.637c.007-.253.012-.414.012-.482a1.92,1.92,0,0,0-.585-1.593,3.748,3.748,0,0,0-2.355-.626,3.989,3.989,0,0,0-2.153.457,2.752,2.752,0,0,0-1.028,1.618l-2.021-.246a4.265,4.265,0,0,1,.907-1.875,4.018,4.018,0,0,1,1.826-1.1,9.013,9.013,0,0,1,2.767-.385,8.129,8.129,0,0,1,2.537.329,3.407,3.407,0,0,1,1.436.827,2.785,2.785,0,0,1,.643,1.258,9.311,9.311,0,0,1,.1,1.706V532.5a23.523,23.523,0,0,0,.132,3.262,3.843,3.843,0,0,0,.522,1.31h-2.159A3.6,3.6,0,0,1,2372.946,535.721Zm-.172-4.129a16.672,16.672,0,0,1-3.376.7,8.57,8.57,0,0,0-1.8.37,1.76,1.76,0,0,0-.815.6,1.455,1.455,0,0,0-.287.879,1.51,1.51,0,0,0,.626,1.233,2.914,2.914,0,0,0,1.832.493,4.669,4.669,0,0,0,2.124-.468,3.043,3.043,0,0,0,1.367-1.28,4.044,4.044,0,0,0,.333-1.849Z" transform="translate(-1045.809 51.468)"/>
    <path id="Trazado_23" data-name="Trazado 23" d="M2401.822,530.912h-1.95V515.851h2.1v5.373a4.385,4.385,0,0,1,3.4-1.469,5.811,5.811,0,0,1,2.167.406,4.4,4.4,0,0,1,1.682,1.14,5.321,5.321,0,0,1,1.034,1.772,6.524,6.524,0,0,1,.374,2.219,5.765,5.765,0,0,1-1.577,4.336,5.239,5.239,0,0,1-3.784,1.53,4.116,4.116,0,0,1-3.446-1.613Zm-.023-5.538a5.078,5.078,0,0,0,.607,2.835,3.106,3.106,0,0,0,2.686,1.429,3.185,3.185,0,0,0,2.383-1.053,4.389,4.389,0,0,0,1.005-3.139,4.454,4.454,0,0,0-.964-3.154,3.093,3.093,0,0,0-2.331-1.017,3.185,3.185,0,0,0-2.383,1.053A4.246,4.246,0,0,0,2401.8,525.374Z" transform="translate(-1067.583 57.624)"/>
    <path id="Trazado_27" data-name="Trazado 27" class="cls-2" d="M1790.553,298.668v14.975c0,5.544,2.354,8.339,6.08,8.339,3.941,0,6.262-2.767,6.262-8.339V298.668h4.932v14.793c0,8.712-4.584,12.535-11.418,12.535-6.374,0-10.789-3.526-10.789-12.563V298.668Z" transform="translate(-691.724 190.517)"/>
    <path id="Trazado_28" data-name="Trazado 28" class="cls-2" d="M1869.671,325.518v-26.85h5.93l7.459,11.545a70,70,0,0,1,4.859,9.163l.1-.034a98.936,98.936,0,0,1-.415-10.71v-9.964h4.61v26.85h-5.259l-7.534-11.939a101.929,101.929,0,0,1-5.231-9.505l-.137.035c.191,3.617.23,7.075.23,11.1v10.306Z" transform="translate(-743.154 190.517)"/>
    <path id="Trazado_29" data-name="Trazado 29" class="cls-2" d="M1959.541,298.668v26.85h-4.932v-26.85Z" transform="translate(-795.128 190.517)"/>
    <path id="Trazado_30" data-name="Trazado 30" class="cls-2" d="M1996.6,325.518l-9.212-26.85h5.374l3.986,12.263c1.156,3.531,2.094,6.542,2.855,9.784h.076c.794-3.123,1.858-6.339,3.02-9.653l4.332-12.394h5.217l-9.926,26.85Z" transform="translate(-815.184 190.517)"/>
    <path id="Trazado_31" data-name="Trazado 31" class="cls-2" d="M2086.82,313.714h-10.933v7.654h12.192v4.15h-17.125v-26.85h16.517v4.15h-11.584v6.747h10.933Z" transform="translate(-866.32 190.517)"/>
    <path id="Trazado_32" data-name="Trazado 32" class="cls-2" d="M2138.509,298.65a48.958,48.958,0,0,1,7.9-.6c4.051,0,6.678.706,8.49,2.232a6.8,6.8,0,0,1,2.32,5.381,7.047,7.047,0,0,1-4.914,6.677v.125c1.89.757,3.03,2.63,3.709,5.05a70.783,70.783,0,0,0,2.2,7.625h-5.047a34.373,34.373,0,0,1-1.878-6.272c-.821-3.5-2.137-4.637-5.031-4.722H2143.4v10.995h-4.889Zm4.889,11.795h3.369c3.448,0,5.564-1.675,5.564-4.325,0-3.01-2.3-4.252-5.479-4.252a15.769,15.769,0,0,0-3.454.28Z" transform="translate(-907.656 190.894)"/>
    <path id="Trazado_33" data-name="Trazado 33" class="cls-2" d="M2209.269,319.146a14.122,14.122,0,0,0,6.991,1.924c3.175,0,4.963-1.449,4.963-3.645,0-1.979-1.32-3.165-4.976-4.3-4.739-1.464-7.7-3.745-7.7-7.908,0-4.465,3.8-7.776,9.67-7.776a15.2,15.2,0,0,1,6.971,1.445l-1.252,4.059a12.726,12.726,0,0,0-5.818-1.394c-3.22,0-4.546,1.661-4.546,3.229,0,2.052,1.648,3.028,5.368,4.263,4.89,1.639,7.333,3.891,7.333,8.075,0,4.158-3.065,8.13-10.414,8.13a16.235,16.235,0,0,1-7.751-1.9Z" transform="translate(-950.241 191.271)"/>
    <path id="Trazado_34" data-name="Trazado 34" class="cls-2" d="M2283.785,298.668v26.85h-4.932v-26.85Z" transform="translate(-993.532 190.517)"/>
    <path id="Trazado_35" data-name="Trazado 35" class="cls-2" d="M2318.359,298.65a58.336,58.336,0,0,1,8.507-.6c5.459,0,9.158,1.146,11.813,3.4a11.725,11.725,0,0,1,4.261,9.558,13.875,13.875,0,0,1-4.241,10.457c-2.884,2.613-7.494,3.963-13.086,3.963a58.348,58.348,0,0,1-7.254-.375Zm4.933,22.636a22.077,22.077,0,0,0,3.173.148c7.239.045,11.242-3.849,11.242-10.185.033-5.87-3.79-9.251-10.515-9.251a19.353,19.353,0,0,0-3.9.336Z" transform="translate(-1017.706 190.894)"/>
    <path id="Trazado_36" data-name="Trazado 36" class="cls-2" d="M2406.2,317.732l-2.474,7.786h-5.183l9.139-26.85h6.421l9.412,26.85h-5.423l-2.66-7.786Zm8.334-3.832-2.354-6.766c-.559-1.634-1.013-3.243-1.44-4.694h-.076c-.405,1.468-.8,3.094-1.309,4.665l-2.284,6.8Z" transform="translate(-1066.769 190.517)"/>
    <path id="Trazado_38" data-name="Trazado 38" class="cls-1" d="M1811.379,414.085a16.249,16.249,0,0,1-7.1,1.375c-8.294,0-13.417-5.385-13.417-13.4,0-8.2,5.7-13.995,14.032-13.995a14.441,14.441,0,0,1,6.679,1.334l-1.032,3.955a12.474,12.474,0,0,0-5.46-1.2c-5.63,0-9.422,3.612-9.422,9.684,0,5.4,3.292,9.474,9.34,9.474a13.416,13.416,0,0,0,5.568-1.123Z" transform="translate(-694.929 135.817)"/>
    <path id="Trazado_39" data-name="Trazado 39" class="cls-1" d="M1872.147,389.276v10.462h11.58V389.276h4.565v26.455h-4.565V404.05h-11.58v11.681h-4.565V389.276Z" transform="translate(-741.876 135.075)"/>
    <path id="Trazado_40" data-name="Trazado 40" class="cls-1" d="M1950.341,408.059l-2.29,7.672h-4.8l8.459-26.455h5.943l8.711,26.455h-5.02l-2.462-7.672Zm7.714-3.776-2.179-6.666c-.517-1.61-.938-3.195-1.333-4.624h-.071c-.375,1.446-.745,3.048-1.212,4.6l-2.114,6.695Z" transform="translate(-788.179 135.075)"/>
    <path id="Trazado_41" data-name="Trazado 41" class="cls-1" d="M2025.261,389.225a43.188,43.188,0,0,1,7.433-.555c3.415,0,5.842.819,7.4,2.221a7.743,7.743,0,0,1,2.481,5.924,8.412,8.412,0,0,1-2.127,6.014c-1.874,1.951-4.707,2.888-8.168,2.888a10.4,10.4,0,0,1-2.5-.236v9.88h-4.525Zm4.525,12.334a9.069,9.069,0,0,0,2.548.27c3.522,0,5.719-1.769,5.719-4.89,0-3.057-2.153-4.448-5.334-4.448a14.648,14.648,0,0,0-2.933.241Z" transform="translate(-838.359 135.445)"/>
    <path id="Trazado_42" data-name="Trazado 42" class="cls-1" d="M2098.2,389.276v14.755c0,5.463,2.178,8.217,5.627,8.217,3.647,0,5.8-2.726,5.8-8.217V389.276h4.565v14.576c0,8.584-4.243,12.351-10.568,12.351-5.9,0-9.985-3.475-9.985-12.378V389.276Z" transform="translate(-880.198 135.075)"/>
    <path id="Trazado_43" data-name="Trazado 43" class="cls-1" d="M2173.619,389.276h4.565v22.232h10.982v4.223h-15.547Z" transform="translate(-929.139 135.075)"/>
    <path id="Trazado_44" data-name="Trazado 44" class="cls-1" d="M2227.569,393.41H2219.9v-4.134h19.993v4.134h-7.755v22.321h-4.565Z" transform="translate(-957.456 135.075)"/>
    <path id="Trazado_45" data-name="Trazado 45" class="cls-1" d="M2306.769,404.1H2296.65v7.541h11.284v4.089h-15.849V389.276h15.287v4.089H2296.65v6.647h10.119Z" transform="translate(-1001.629 135.075)"/>
    <path id="Trazado_46" data-name="Trazado 46" class="cls-1" d="M2356.8,389.225a43.19,43.19,0,0,1,7.433-.555c3.415,0,5.842.819,7.4,2.221a7.744,7.744,0,0,1,2.481,5.924,8.413,8.413,0,0,1-2.127,6.014c-1.875,1.951-4.707,2.888-8.168,2.888a10.4,10.4,0,0,1-2.5-.236v9.88H2356.8Zm4.525,12.334a9.07,9.07,0,0,0,2.548.27c3.522,0,5.719-1.769,5.719-4.89,0-3.057-2.154-4.448-5.334-4.448a14.648,14.648,0,0,0-2.933.241Z" transform="translate(-1041.228 135.445)"/>
    <path id="Trazado_24" data-name="Trazado 24" d="M2440.623,533.554l2.189.236a4.659,4.659,0,0,1-1.919,2.6,6.375,6.375,0,0,1-3.578.924,6.179,6.179,0,0,1-4.348-1.474,5.327,5.327,0,0,1-1.606-4.135,5.568,5.568,0,0,1,1.623-4.274,5.919,5.919,0,0,1,4.215-1.521,5.75,5.75,0,0,1,4.1,1.49,5.468,5.468,0,0,1,1.588,4.192q0,.164-.012.493h-9.322a3.906,3.906,0,0,0,1.166,2.754,3.734,3.734,0,0,0,2.613.955,3.272,3.272,0,0,0,3.3-2.24Zm-6.956-2.989h6.979a3.41,3.41,0,0,0-.8-2.065,3.454,3.454,0,0,0-2.625-1.068,3.642,3.642,0,0,0-2.454.852A3.183,3.183,0,0,0,2433.667,530.565Z" transform="translate(-1086.851 51.468)"/>
    <path id="Trazado_25" data-name="Trazado 25" d="M2467.967,537.067v-10.91h1.843v1.654a4.616,4.616,0,0,1,1.3-1.531,2.448,2.448,0,0,1,1.313-.37,4.3,4.3,0,0,1,2.1.6l-.705,1.716a3.157,3.157,0,0,0-1.5-.4,2.09,2.09,0,0,0-1.206.365,1.977,1.977,0,0,0-.761,1.012,6.563,6.563,0,0,0-.342,2.157v5.712Z" transform="translate(-1109.25 51.468)"/>
    <path id="Trazado_26" data-name="Trazado 26" d="M2486.372,517.6v-2.147h2.225v1.695a4.1,4.1,0,0,1-.358,1.982,3.039,3.039,0,0,1-1.544,1.254l-.507-.73a1.759,1.759,0,0,0,.928-.714,2.728,2.728,0,0,0,.34-1.341Zm3.574,0v-2.147h2.226v1.695a4.1,4.1,0,0,1-.357,1.982,3.041,3.041,0,0,1-1.546,1.254l-.507-.73a1.76,1.76,0,0,0,.929-.714,2.746,2.746,0,0,0,.34-1.341Z" transform="translate(-1120.4 57.866)"/>
    <path id="Trazado_37" data-name="Trazado 37" class="cls-2" d="M2484.779,298.65a58.336,58.336,0,0,1,8.507-.6c5.459,0,9.158,1.146,11.813,3.4a11.725,11.725,0,0,1,4.261,9.558,13.874,13.874,0,0,1-4.242,10.457c-2.884,2.613-7.494,3.963-13.086,3.963a58.345,58.345,0,0,1-7.254-.375Zm4.932,22.636a22.082,22.082,0,0,0,3.174.148c7.239.045,11.242-3.849,11.242-10.185.033-5.87-3.79-9.251-10.515-9.251a19.354,19.354,0,0,0-3.9.336Z" transform="translate(-1119.538 190.894)"/>
    <path id="Trazado_47" data-name="Trazado 47" class="cls-1" d="M2439.859,404.1H2429.74v7.541h11.284v4.089h-15.85V389.276h15.287v4.089H2429.74v6.647h10.119Z" transform="translate(-1083.066 135.075)"/>
    <path id="Trazado_48" data-name="Trazado 48" class="cls-1" d="M2507.09,414.085a16.248,16.248,0,0,1-7.1,1.375c-8.295,0-13.418-5.385-13.418-13.4,0-8.2,5.7-13.995,14.033-13.995a14.438,14.438,0,0,1,6.679,1.334l-1.032,3.955a12.472,12.472,0,0,0-5.46-1.2c-5.629,0-9.422,3.612-9.422,9.684,0,5.4,3.292,9.474,9.34,9.474a13.414,13.414,0,0,0,5.568-1.123Z" transform="translate(-1120.634 135.817)"/>
  </g>
</svg>
